<?xml version="1.0" encoding="utf-8"?>
<!-- Generator: Adobe Illustrator 16.0.0, SVG Export Plug-In . SVG Version: 6.00 Build 0)  -->
<!DOCTYPE svg PUBLIC "-//W3C//DTD SVG 1.1//EN" "http://www.w3.org/Graphics/SVG/1.1/DTD/svg11.dtd">
<svg version="1.1" id="Capa_1" xmlns="http://www.w3.org/2000/svg" xmlns:xlink="http://www.w3.org/1999/xlink" x="0px" y="0px"
	 width="595.281px" height="597.445px" viewBox="0 0 595.281 597.445" enable-background="new 0 0 595.281 597.445"
	 xml:space="preserve">
<g>
	<path fill="none" stroke="#E46F57" stroke-width="24" stroke-miterlimit="10" d="M527.66,585.863H68.208
		c-31.04,0-56.203-25.163-56.203-56.203V70.21c0-31.04,25.163-56.203,56.203-56.203H527.66c31.039,0,56.203,25.163,56.203,56.203
		v459.45C583.863,560.7,558.699,585.863,527.66,585.863z"/>
	<path fill="#E46F57" d="M439.609,338.578l-101.164-2.342l56.67,84.304l-41.684,24.348l-52.45-89.449l-51.519,89.918l-42.621-24.348
		l56.671-84.304l-101.165,2.342v-45.899l101.165,2.342l-56.671-84.304l42.621-24.354l51.05,88.519l52.45-88.519l41.684,24.354
		l-56.67,84.304l101.164-2.342v45.431H439.609z"/>
</g>
</svg>
