<svg xmlns="http://www.w3.org/2000/svg" viewBox="0 0 127.1 127.1"><defs><style>.cls-1{fill:none;stroke:#e46f57;stroke-miterlimit:10;stroke-width:5px;}.cls-2{fill:#e46f57;}</style></defs><title>Zasób 1</title><g id="Warstwa_2" data-name="Warstwa 2"><g id="Layer_19" data-name="Layer 19"><path class="cls-1" d="M112.6,124.6H14.5a12,12,0,0,1-12-12V14.5a12,12,0,0,1,12-12h98.1a12,12,0,0,1,12,12v98.1A12,12,0,0,1,112.6,124.6Z"/><path class="cls-2" d="M93.8,71.8l-21.6-.5,12.1,18-8.9,5.2L64.2,75.4l-11,19.2-9.1-5.2,12.1-18-21.6.5V62.1l21.6.5-12.1-18,9.1-5.2L64.1,58.3,75.3,39.4l8.9,5.2-12.1,18,21.6-.5v9.7Z"/></g></g></svg>